<svg xmlns="http://www.w3.org/2000/svg" version="1.1" xmlns:xlink="http://www.w3.org/1999/xlink" xmlns:svgjs="http://svgjs.dev/svgjs" viewBox="0 0 800 800" opacity="0.37"><defs><linearGradient x1="50%" y1="0%" x2="50%" y2="100%" id="ccchaos-grad"><stop stop-color="hsl(0, 68%, 48%)" stop-opacity="1" offset="0%"></stop><stop stop-color="#6366f1" stop-opacity="1" offset="100%"></stop></linearGradient></defs><g stroke-width="2" stroke="url(#ccchaos-grad)" fill="none" stroke-linecap="round"><path d="M381.31 36.35C389.98 36.29 406.93 37.92 415.21 39.57 423.4 41.7 439.39 47.36 447.19 50.8 457.56 55.7 467.67 61.23 477.55 67.25 487.53 73.16 497.38 79.36 507.15 85.73 517.17 91.72 527.24 97.77 537.45 103.83 548.06 109.4 558.95 114.97 570.18 120.56 581.93 125.71 594.1 130.95 606.69 136.34 619.76 141.43 633.18 146.79 646.81 152.46 660.64 158 674.4 163.97 687.82 170.4 700.85 176.85 713.07 183.82 724.12 191.31 734.06 198.92 742.33 207.06 748.63 215.72 753.32 224.52 755.8 233.81 756.01 243.54 754.71 253.39 751.43 263.65 746.45 274.24 740.88 284.93 734.44 295.9 727.66 307.1 724.57 312.71 721.59 318.38 718.79 324.08 716.39 329.8 714.29 335.55 712.54 341.33 710.94 350.02 710.9 367.51 712.54 376.29 714.4 382.15 716.67 387.95 719.32 393.69 722.44 399.43 725.82 405.11 729.39 410.72 733.25 416.34 737.17 421.9 741.06 427.4 745.04 432.9 748.86 438.35 752.44 443.75 759.18 454.58 764.25 465.23 767.3 475.74 768.72 486.38 767.7 496.95 764.24 507.51 758.94 518.3 751.42 529.18 741.99 540.2 731.29 551.56 719.25 563.14 706.28 574.98 692.91 587.21 679.21 599.71 665.47 612.46 652.07 625.51 639.01 638.7 626.44 651.89 614.56 665.11 603.26 678.07 592.52 690.54 582.51 702.57 572.94 713.72 563.73 723.73 555.07 732.75 546.56 740.25 538.09 746 529.95 750.41 521.66 752.93 513.15 753.49 504.76 752.83 496.03 750.46 486.89 746.58 477.78 742.18 468.2 736.92 458.16 731.19 450.55 727.22 434.72 720.13 426.51 717.28 418.17 715.34 400.93 713.79 392.05 714.29 386.09 715.27 380.1 716.58 374.09 718.21 368.08 720.29 362.06 722.6 356.03 725.12 350.01 727.96 343.98 730.9 337.96 733.89 331.96 737.05 325.96 740.15 319.98 743.14 308.08 749.11 296.28 754.01 284.66 757.52 273.15 760.04 261.87 760.66 250.89 759.31 240.06 756.5 229.58 751.68 219.51 745.01 209.64 737.05 200.2 727.55 191.27 716.8 182.53 705.3 174.29 692.98 166.58 680.14 159.02 667.15 151.95 653.99 145.38 640.87 138.85 628.02 132.75 615.4 127.06 603.09 121.28 591.24 115.82 579.71 110.68 568.51 105.32 557.77 100.21 547.26 95.34 536.93 90.22 526.95 85.33 517.02 80.72 507.07 75.88 497.34 71.36 487.47 67.22 477.43 62.96 467.49 59.16 457.29 55.88 446.8 53.5 438.91 49.52 422.73 47.96 414.43 46.62 406.05 44.92 388.86 44.58 380.06 44.48 374.16 44.57 368.26 44.85 362.36 45.2 356.45 45.73 350.55 46.46 344.66 47.24 338.77 48.21 332.89 49.36 327.03 50.56 321.18 51.93 315.35 53.48 309.56 56.68 298.01 60.52 286.63 64.94 275.48 69.38 264.43 74.31 253.66 79.67 243.25 84.91 232.99 90.48 223.14 96.33 213.77 101.95 204.58 107.8 195.9 113.85 187.79 119.63 179.87 125.62 172.51 131.82 165.74 137.79 159.1 144.03 153 150.56 147.43 156.96 141.86 163.73 136.71 170.87 131.96 178 127.02 185.58 122.34 193.59 117.85 201.68 112.99 210.24 108.21 219.23 103.47 228.35 98.23 237.91 92.98 247.84 87.74 257.91 82.02 268.33 76.37 279.04 70.86 289.86 65.08 300.93 59.61 312.18 54.61 317.83 52.12 323.52 49.79 329.24 47.64 334.98 45.55 340.73 43.67 346.51 42.01 352.29 40.47 358.09 39.17 363.89 38.14 369.69 37.25 375.5 36.65 381.3 36.35" stroke-dasharray="3 9" transform="rotate(0, 400, 400)" opacity="0.96"></path><path d="M378.99 46.94C390.17 46.81 401.12 47.86 411.81 50.03 422.5 52.73 432.96 56.41 443.18 60.94 453.45 65.73 463.54 71.16 473.48 77.08 483.55 82.94 493.56 89.1 503.57 95.45 513.82 101.47 524.19 107.57 534.73 113.69 545.64 119.35 556.83 125.01 568.35 130.68 580.3 135.92 592.61 141.22 605.23 146.64 618.22 151.73 631.41 157.04 644.68 162.62 657.99 168.02 671.06 173.79 683.66 179.96 695.76 186.1 706.93 192.71 716.86 199.8 725.68 206.94 732.84 214.6 738.11 222.73 741.88 230.97 743.59 239.69 743.23 248.83 741.55 258.08 738.12 267.74 733.2 277.74 727.84 287.82 721.78 298.2 715.48 308.85 710.08 319.53 705.36 330.43 701.75 341.5 700.18 352.59 700.26 363.81 702.1 375.14 706.17 386.48 711.59 397.64 717.94 408.63 725.42 419.62 732.86 430.46 739.74 441.14 746.28 451.87 751.34 462.51 754.58 473.06 756.4 483.74 755.97 494.42 753.28 505.14 748.9 516.07 742.39 527.12 734.01 538.32 724.35 549.82 713.31 561.53 701.24 573.47 688.64 585.7 675.55 598.16 662.27 610.76 649.14 623.56 636.18 636.39 623.57 649.11 611.5 661.73 599.9 673.99 588.78 685.66 578.31 696.8 568.26 707.01 558.57 716.03 549.42 724.08 540.46 730.63 531.62 735.51 523.12 739.14 514.57 741.01 505.89 741.09 497.38 740.09 488.6 737.56 479.53 733.69 470.5 729.44 461.1 724.45 451.31 719.07 441.51 714.35 431.29 709.97 420.67 706.29 410.03 704.19 398.98 703.29 387.56 703.7 376.14 706.02 364.64 709.48 353.12 713.84 341.63 719.41 330.16 725.19 318.77 730.79 307.45 736.5 296.26 741.28 285.25 744.83 274.36 747.52 263.7 748.5 253.35 747.67 243.15 745.53 233.29 741.5 223.84 735.7 214.56 728.67 205.71 720.12 197.34 710.29 189.13 699.68 181.4 688.17 174.16 676.04 167.03 663.64 160.36 650.96 154.15 638.18 147.94 625.55 142.12 613.04 136.67 600.74 131.09 588.8 125.81 577.12 120.81 565.73 115.58 554.73 110.58 543.96 105.8 533.38 100.75 523.12 95.93 512.96 91.36 502.84 86.56 492.93 82.07 482.96 77.94 472.88 73.68 462.91 69.87 452.76 66.56 442.39 63.27 432.07 60.57 421.49 58.53 410.65 56.62 399.82 55.44 388.71 55.02 377.34 54.83 365.97 55.45 354.61 56.83 343.33 58.44 332.06 60.79 320.89 63.83 309.87 67.03 298.9 70.86 288.13 75.26 277.61 79.69 267.18 84.6 257.06 89.92 247.3 95.13 237.68 100.67 228.47 106.47 219.73 112.05 211.14 117.85 203.05 123.83 195.5 129.54 188.09 135.45 181.2 141.54 174.86 147.39 168.59 153.48 162.81 159.83 157.49 166.02 152.13 172.53 147.13 179.38 142.47 186.19 137.58 193.39 132.89 200.99 128.37 208.63 123.45 216.71 118.59 225.2 113.76 233.78 108.45 242.77 103.13 252.14 97.82 261.61 92.08 271.43 86.41 281.56 80.91 291.77 75.18 302.25 69.77 312.93 64.83 323.67 59.98 334.58 55.82 345.61 52.49 356.66 49.58 367.8 47.69 378.98 46.94" stroke-dasharray="9 11" transform="rotate(3.225806451612903, 400, 400)" opacity="0.92"></path><path d="M377.72 57.53C388.51 57.39 399.13 58.4 409.56 60.48 420.01 63.09 430.29 66.65 440.43 71.05 450.61 75.73 460.7 81.04 470.71 86.86 480.85 92.64 491 98.75 501.21 105.07 511.65 111.1 522.25 117.23 533.04 123.39 544.15 129.14 555.54 134.89 567.2 140.65 579.21 145.98 591.5 151.36 604.01 156.82 616.75 161.95 629.57 167.25 642.33 172.77 654.99 178.09 667.28 183.71 678.97 189.68 690.08 195.58 700.19 201.9 709.02 208.64 716.75 215.4 722.86 222.62 727.16 230.29 730.1 238.04 731.14 246.23 730.3 254.85 728.33 263.54 724.8 272.64 719.99 282.09 714.89 291.6 709.21 301.44 703.39 311.55 698.47 321.7 694.21 332.11 691 342.72 689.68 353.33 689.88 364.14 691.66 375.11 695.52 386.07 700.59 396.94 706.52 407.69 713.54 418.45 720.56 429.13 727.1 439.71 733.4 450.35 738.4 460.95 741.78 471.53 743.93 482.23 744.03 492.97 742.04 503.79 738.5 514.79 732.95 525.94 725.58 537.24 716.96 548.78 706.92 560.51 695.79 572.41 684.04 584.54 671.66 596.81 658.94 609.15 646.23 621.58 633.53 633.93 621.03 646.07 608.92 658.01 597.17 669.49 585.82 680.3 575.01 690.53 564.58 699.79 554.51 707.84 544.92 714.95 535.57 720.6 526.38 724.67 517.53 727.6 508.7 728.89 499.82 728.55 491.14 727.28 482.28 724.64 473.21 720.83 464.22 716.75 454.93 712.04 445.34 707.03 435.76 702.67 425.82 698.67 415.55 695.32 405.27 693.46 394.65 692.68 383.7 693.11 372.75 695.3 361.76 698.53 350.78 702.58 339.83 707.78 328.93 713.2 318.13 718.47 307.39 723.92 296.8 728.56 286.41 732.1 276.12 734.93 266.09 736.21 256.36 735.84 246.77 734.29 237.52 730.99 228.67 726.01 219.96 719.88 211.68 712.26 203.85 703.35 196.14 693.65 188.88 682.99 182.08 671.62 175.35 659.9 169.04 647.79 163.15 635.47 157.22 623.19 151.64 610.91 146.4 598.75 141 586.84 135.87 575.13 130.99 563.65 125.87 552.5 120.95 541.56 116.24 530.81 111.26 520.35 106.48 510 101.95 499.74 97.19 489.68 92.71 479.61 88.58 469.5 84.34 459.5 80.52 449.38 77.19 439.13 73.88 428.93 71.16 418.53 69.07 407.95 67.14 397.38 65.91 386.6 65.46 375.62 65.25 364.65 65.83 353.75 67.19 342.95 68.78 332.18 71.12 321.54 74.14 311.08 77.33 300.67 81.14 290.49 85.51 280.58 89.92 270.75 94.8 261.24 100.08 252.11 105.26 243.09 110.76 234.48 116.52 226.32 122.07 218.29 127.82 210.73 133.76 203.68 139.42 196.72 145.26 190.25 151.27 184.27 157.03 178.31 163 172.78 169.2 167.67 175.21 162.46 181.52 157.56 188.12 152.94 194.64 148.07 201.52 143.36 208.77 138.77 216.01 133.79 223.66 128.85 231.69 123.93 239.77 118.54 248.25 113.16 257.09 107.8 266.01 102.04 275.28 96.38 284.85 90.9 294.49 85.22 304.41 79.89 314.56 75.03 324.74 70.28 335.13 66.21 345.68 62.96 356.24 60.12 366.93 58.27 377.71 57.54" stroke-dasharray="4 10" transform="rotate(6.451612903225806, 400, 400)" opacity="0.48"></path><path d="M377.57 68.13C387.99 67.97 398.31 68.93 408.52 70.94 418.74 73.44 428.87 76.89 438.92 81.15 449.03 85.69 459.1 90.88 469.17 96.58 479.36 102.27 489.63 108.31 499.98 114.58 510.55 120.6 521.29 126.75 532.22 132.94 543.42 138.76 554.87 144.59 566.54 150.43 578.47 155.86 590.6 161.33 602.84 166.86 615.19 172.05 627.5 177.37 639.62 182.87 651.53 188.15 662.97 193.68 673.7 199.51 683.79 205.22 692.83 211.31 700.58 217.77 707.27 224.2 712.4 231.07 715.82 238.34 718.01 245.65 718.47 253.39 717.23 261.54 715.04 269.73 711.49 278.31 706.83 287.26 702.01 296.25 696.73 305.58 691.38 315.21 686.93 324.86 683.12 334.79 680.28 344.97 679.2 355.15 679.49 365.56 681.23 376.18 684.86 386.8 689.61 397.38 695.14 407.9 701.71 418.43 708.3 428.94 714.49 439.42 720.55 449.95 725.45 460.49 728.92 471.06 731.33 481.73 731.89 492.49 730.53 503.33 727.77 514.34 723.1 525.5 716.7 536.78 709.09 548.27 700.07 559.9 689.9 571.65 679.04 583.55 667.46 595.52 655.41 607.46 643.23 619.41 630.92 631.19 618.67 642.65 606.68 653.85 594.93 664.51 583.48 674.42 572.47 683.73 561.79 692.04 551.43 699.15 541.5 705.36 531.81 710.17 522.32 713.49 513.15 715.78 504.06 716.57 495 715.88 486.12 714.4 477.16 711.71 468.07 707.99 459.07 704.1 449.86 699.68 440.42 695.03 431 691.05 421.31 687.41 411.36 684.37 401.4 682.73 391.16 682.08 380.65 682.51 370.15 684.58 359.65 687.59 349.2 691.35 338.77 696.19 328.41 701.25 318.19 706.2 308.02 711.37 298.02 715.84 288.25 719.34 278.55 722.26 269.12 723.79 260 723.82 251 722.81 242.33 720.17 234.06 715.96 225.9 710.67 218.14 703.94 210.81 695.96 203.57 687.16 196.74 677.38 190.34 666.82 183.97 655.85 177.98 644.39 172.36 632.63 166.68 620.8 161.31 608.87 156.24 596.97 151 585.23 145.99 573.61 141.2 562.16 136.16 550.97 131.31 539.95 126.65 529.11 121.72 518.52 116.98 508.06 112.47 497.71 107.74 487.54 103.29 477.4 99.16 467.28 94.93 457.26 91.11 447.19 87.76 437.04 84.45 426.95 81.71 416.73 79.59 406.39 77.64 396.07 76.39 385.59 75.9 375 75.66 364.4 76.22 353.92 77.54 343.61 79.11 333.3 81.42 323.17 84.41 313.26 87.57 303.38 91.35 293.75 95.67 284.43 100.05 275.16 104.9 266.23 110.14 257.68 115.29 249.21 120.75 241.15 126.47 233.52 131.99 225.99 137.71 218.9 143.6 212.28 149.24 205.72 155.03 199.59 160.98 193.91 166.68 188.21 172.56 182.89 178.64 177.92 184.52 172.81 190.65 167.97 197.05 163.36 203.34 158.47 209.95 153.72 216.88 149.05 223.78 144 231.05 138.97 238.67 133.96 246.32 128.51 254.34 123.07 262.7 117.66 271.11 111.9 279.87 106.26 288.94 100.81 298.04 95.21 307.44 89.96 317.09 85.19 326.77 80.55 336.67 76.58 346.76 73.41 356.86 70.65 367.14 68.86 377.56 68.13" stroke-dasharray="7 9" transform="rotate(9.67741935483871, 400, 400)" opacity="0.48"></path><path d="M378.55 78.72C388.63 78.56 398.68 79.46 408.67 81.38 418.68 83.79 428.67 87.11 438.63 91.23 448.65 95.63 458.7 100.68 468.79 106.24 478.99 111.83 489.3 117.78 499.73 123.98 510.34 129.98 521.12 136.12 532.09 142.33 543.27 148.2 554.64 154.1 566.18 160.01 577.89 165.54 589.71 171.1 601.54 176.7 613.37 181.97 625.06 187.35 636.44 192.86 647.53 198.13 658.04 203.61 667.78 209.35 676.84 214.94 684.83 220.85 691.55 227.09 697.26 233.27 701.48 239.84 704.11 246.78 705.65 253.73 705.62 261.07 704.06 268.8 701.72 276.55 698.21 284.69 693.74 293.19 689.22 301.71 684.35 310.57 679.46 319.76 675.46 328.95 672.08 338.45 669.58 348.22 668.72 357.99 669.11 368.03 670.79 378.31 674.22 388.6 678.65 398.9 683.79 409.19 689.92 419.5 696.09 429.83 701.94 440.18 707.72 450.57 712.51 461.02 716.02 471.53 718.63 482.13 719.57 492.83 718.77 503.63 716.71 514.56 712.87 525.62 707.38 536.8 700.75 548.11 692.72 559.54 683.52 571.02 673.59 582.58 662.86 594.13 651.56 605.58 640.02 616.95 628.23 628.07 616.36 638.79 604.64 649.19 593.03 658.98 581.63 667.98 570.55 676.37 559.75 683.75 549.22 689.97 539.05 695.33 529.12 699.37 519.4 702 509.97 703.74 500.66 704.09 491.42 703.11 482.37 701.49 473.3 698.79 464.17 695.19 455.14 691.51 445.98 687.4 436.67 683.1 427.39 679.48 417.91 676.18 408.23 673.45 398.56 672.02 388.67 671.48 378.58 671.92 368.49 673.87 358.45 676.67 348.5 680.14 338.57 684.64 328.74 689.34 319.08 693.98 309.46 698.87 300.03 703.15 290.83 706.58 281.71 709.54 272.85 711.27 264.31 711.63 255.86 711.09 247.75 709.05 240.01 705.55 232.35 701.05 225.08 695.19 218.2 688.08 211.38 680.19 204.95 671.3 198.9 661.58 192.84 651.41 187.13 640.67 181.76 629.54 176.28 618.27 171.09 606.8 166.16 595.27 161.04 583.81 156.12 572.4 151.4 561.09 146.44 549.97 141.63 538.99 137 528.16 132.11 517.53 127.4 507.03 122.91 496.65 118.21 486.43 113.78 476.27 109.66 466.16 105.45 456.16 101.63 446.15 98.29 436.12 94.98 426.13 92.22 416.09 90.09 405.99 88.12 395.9 86.85 385.73 86.33 375.49 86.07 365.24 86.6 355.18 87.89 345.31 89.43 335.44 91.7 325.79 94.63 316.39 97.76 307.01 101.49 297.91 105.77 289.12 110.1 280.38 114.9 271.98 120.08 263.95 125.2 255.99 130.62 248.42 136.3 241.27 141.79 234.17 147.48 227.49 153.34 221.24 158.95 215 164.72 209.17 170.62 203.72 176.28 198.22 182.1 193.04 188.09 188.17 193.87 183.13 199.87 178.31 206.11 173.67 212.21 168.75 218.6 163.92 225.27 159.18 231.88 154.04 238.83 148.93 246.1 143.83 253.36 138.33 260.98 132.84 268.92 127.41 276.88 121.67 285.18 116.06 293.79 110.66 302.41 105.14 311.34 99.99 320.53 95.33 329.74 90.8 339.19 86.94 348.87 83.86 358.55 81.18 368.45 79.44 378.54 78.72" stroke-dasharray="7 5" transform="rotate(12.903225806451612, 400, 400)" opacity="0.19"></path><path d="M380.6 89.31C390.37 89.14 400.16 90 409.95 91.83 419.75 94.13 429.59 97.32 439.44 101.29 449.36 105.55 459.34 110.44 469.4 115.85 479.56 121.32 489.85 127.16 500.26 133.27 510.83 139.23 521.56 145.34 532.43 151.55 543.46 157.46 554.64 163.41 565.91 169.38 577.27 175 588.65 180.65 599.94 186.33 611.15 191.69 622.12 197.13 632.68 202.68 642.88 207.97 652.45 213.45 661.18 219.13 669.23 224.65 676.21 230.44 681.94 236.52 686.74 242.51 690.14 248.84 692.07 255.52 693.05 262.16 692.6 269.17 690.82 276.55 688.4 283.93 684.96 291.67 680.72 299.77 676.52 307.87 672.06 316.33 667.63 325.1 664.06 333.88 661.08 342.98 658.92 352.37 658.26 361.76 658.72 371.45 660.35 381.41 663.58 391.38 667.71 401.4 672.48 411.46 678.18 421.53 683.94 431.67 689.43 441.85 694.93 452.08 699.56 462.39 703.07 472.77 705.83 483.24 707.09 493.81 706.78 504.48 705.34 515.25 702.26 526.13 697.63 537.08 691.92 548.13 684.85 559.24 676.62 570.34 667.64 581.46 657.79 592.49 647.3 603.35 636.49 614.06 625.31 624.45 613.96 634.38 602.62 643.95 591.29 652.86 580.08 660.96 569.09 668.44 558.29 674.94 547.71 680.3 537.43 684.87 527.36 688.2 517.49 690.23 507.87 691.47 498.4 691.47 489.03 690.27 479.84 688.54 470.69 685.87 461.53 682.43 452.48 678.98 443.35 675.17 434.15 671.24 424.98 667.96 415.69 664.99 406.27 662.55 396.85 661.31 387.28 660.88 377.58 661.33 367.88 663.16 358.27 665.75 348.79 668.96 339.33 673.12 330 677.48 320.87 681.8 311.76 686.4 302.87 690.48 294.23 693.81 285.63 696.78 277.32 698.65 269.32 699.29 261.38 699.16 253.77 697.66 246.52 694.79 239.32 691.04 232.48 685.98 226.02 679.73 219.57 672.72 213.48 664.71 207.73 655.85 201.95 646.5 196.47 636.54 191.3 626.11 186 615.47 180.94 604.56 176.12 593.5 171.09 582.44 166.25 571.34 161.58 560.29 156.66 549.36 151.9 538.52 147.29 527.79 142.43 517.23 137.75 506.77 133.27 496.43 128.6 486.23 124.18 476.11 120.08 466.06 115.9 456.11 112.1 446.18 108.75 436.29 105.46 426.44 102.71 416.57 100.57 406.71 98.6 396.85 97.32 386.97 96.77 377.07 96.49 367.17 96.99 357.48 98.22 348.03 99.73 338.59 101.95 329.39 104.83 320.46 107.9 311.55 111.58 302.93 115.78 294.63 120.07 286.37 124.8 278.44 129.92 270.89 134.99 263.37 140.37 256.22 146 249.48 151.46 242.76 157.13 236.42 162.96 230.48 168.55 224.51 174.29 218.9 180.17 213.63 185.8 208.27 191.57 203.19 197.5 198.37 203.22 193.36 209.13 188.52 215.24 183.84 221.2 178.86 227.41 173.97 233.87 169.12 240.25 163.92 246.93 158.72 253.91 153.55 260.84 148 268.11 142.49 275.69 137.05 283.26 131.33 291.15 125.77 299.35 120.45 307.55 115.03 316.05 109.99 324.83 105.44 333.61 101.03 342.67 97.29 351.97 94.3 361.27 91.71 370.81 90.02 380.59 89.31" stroke-dasharray="3 3" transform="rotate(16.129032258064516, 400, 400)" opacity="0.53"></path><path d="M383.62 99.91C393.11 99.73 402.64 100.53 412.22 102.27 421.82 104.47 431.49 107.52 441.21 111.33 450.99 115.44 460.86 120.17 470.83 125.42 480.89 130.75 491.07 136.46 501.38 142.47 511.8 148.35 522.36 154.41 533.02 160.6 543.79 166.52 554.64 172.5 565.52 178.52 576.41 184.22 587.24 189.94 597.89 195.7 608.39 201.15 618.56 206.66 628.25 212.27 637.54 217.61 646.14 223.11 653.87 228.77 660.95 234.26 666.96 239.97 671.78 245.94 675.75 251.8 678.42 257.95 679.74 264.42 680.24 270.82 679.48 277.57 677.53 284.65 675.09 291.71 671.78 299.12 667.79 306.88 663.93 314.62 659.88 322.7 655.88 331.11 652.74 339.52 650.13 348.25 648.28 357.3 647.81 366.33 648.34 375.68 649.92 385.34 652.95 394.99 656.79 404.74 661.2 414.55 666.49 424.37 671.85 434.28 676.98 444.27 682.19 454.29 686.64 464.41 690.11 474.62 692.96 484.88 694.48 495.25 694.57 505.7 693.69 516.22 691.29 526.82 687.45 537.46 682.62 548.14 676.47 558.83 669.17 569.45 661.14 580.04 652.21 590.47 642.57 600.66 632.55 610.66 622.07 620.28 611.32 629.38 600.49 638.09 589.57 646.12 578.67 653.33 567.9 659.95 557.24 665.6 546.75 670.16 536.47 674.01 526.37 676.71 516.45 678.21 506.74 679.03 497.18 678.73 487.74 677.37 478.47 675.59 469.26 672.99 460.1 669.72 451.04 666.52 441.97 663.02 432.87 659.44 423.81 656.49 414.69 653.85 405.5 651.67 396.32 650.62 387.05 650.28 377.71 650.74 368.36 652.45 359.15 654.85 350.12 657.8 341.08 661.64 332.23 665.67 323.58 669.67 314.96 673.98 306.56 677.84 298.43 681.05 290.33 683.99 282.51 685.95 275 686.83 267.53 687.04 260.37 686 253.56 683.72 246.77 680.64 240.31 676.33 234.2 670.89 228.08 664.73 222.28 657.58 216.79 649.59 211.23 641.08 205.95 631.92 200.93 622.24 195.77 612.31 190.82 602.02 186.08 591.52 181.12 580.95 176.33 570.28 171.7 559.59 166.82 548.96 162.07 538.36 157.48 527.84 152.65 517.43 147.99 507.11 143.53 496.9 138.89 486.79 134.5 476.77 130.42 466.84 126.27 456.99 122.5 447.19 119.17 437.45 115.91 427.76 113.17 418.09 111.03 408.46 109.07 398.84 107.78 389.24 107.21 379.67 106.91 370.1 107.37 360.78 108.56 351.72 110.02 342.66 112.18 333.88 114.99 325.38 118 316.9 121.6 308.71 125.72 300.86 129.94 293.02 134.6 285.51 139.65 278.37 144.66 271.24 149.98 264.47 155.56 258.06 160.99 251.65 166.62 245.6 172.41 239.89 178 234.14 183.72 228.7 189.57 223.55 195.19 218.29 200.94 213.26 206.82 208.46 212.5 203.44 218.34 198.57 224.36 193.83 230.21 188.78 236.29 183.8 242.59 178.87 248.79 173.59 255.25 168.33 261.99 163.09 268.66 157.52 275.63 152 282.9 146.57 290.14 140.9 297.68 135.41 305.53 130.17 313.36 124.86 321.49 119.94 329.9 115.52 338.3 111.25 346.99 107.62 355.95 104.74 364.9 102.23 374.12 100.59 383.61 99.91" stroke-dasharray="3 2" transform="rotate(19.35483870967742, 400, 400)" opacity="0.96"></path><path d="M387.47 110.5C396.67 110.31 405.96 111.07 415.32 112.72 424.7 114.81 434.17 117.72 443.73 121.37 453.33 125.31 463.04 129.86 472.84 134.94 482.72 140.12 492.72 145.69 502.82 151.56 513 157.35 523.29 163.35 533.63 169.48 544.03 175.39 554.44 181.38 564.81 187.43 575.13 193.18 585.32 198.97 595.25 204.8 604.97 210.33 614.3 215.92 623.08 221.58 631.44 227 639.09 232.53 645.86 238.21 652 243.69 657.12 249.37 661.1 255.27 664.32 261.03 666.34 267.06 667.15 273.37 667.26 279.59 666.26 286.13 664.22 292.97 661.81 299.77 658.67 306.9 654.96 314.36 651.44 321.79 647.79 329.55 644.23 337.64 641.48 345.71 639.24 354.11 637.67 362.83 637.37 371.54 637.96 380.57 639.48 389.92 642.33 399.27 645.88 408.72 649.95 418.27 654.85 427.82 659.81 437.48 664.59 447.23 669.49 457 673.74 466.88 677.13 476.83 680.03 486.83 681.74 496.92 682.18 507.07 681.77 517.25 679.99 527.48 676.86 537.71 672.84 547.94 667.57 558.13 661.18 568.19 654.07 578.17 646.05 587.94 637.29 597.41 628.1 606.65 618.4 615.46 608.32 623.71 598.11 631.58 587.7 638.74 577.23 645.09 566.81 650.89 556.41 655.75 546.12 659.58 535.98 662.78 525.96 664.91 516.09 665.96 506.4 666.43 496.84 665.9 487.4 664.43 478.12 662.65 468.91 660.15 459.79 657.08 450.75 654.13 441.75 650.95 432.76 647.7 423.83 645.08 414.88 642.73 405.91 640.82 396.96 639.93 387.97 639.69 378.95 640.14 369.94 641.75 361.1 643.97 352.47 646.66 343.84 650.2 335.41 653.9 327.22 657.59 319.03 661.61 311.09 665.24 303.42 668.3 295.76 671.18 288.39 673.2 281.32 674.25 274.26 674.74 267.51 674.11 261.08 672.34 254.64 669.87 248.52 666.25 242.71 661.57 236.86 656.22 231.3 649.91 226.02 642.75 220.64 635.1 215.51 626.76 210.61 617.86 205.56 608.67 200.69 599.08 196 589.21 191.1 579.22 186.34 569.06 181.73 558.81 176.87 548.58 172.15 538.32 167.57 528.1 162.77 517.95 158.13 507.86 153.69 497.85 149.08 487.92 144.73 478.07 140.68 468.31 136.57 458.62 132.84 449 129.54 439.46 126.31 429.95 123.6 420.5 121.47 411.12 119.52 401.75 118.23 392.43 117.64 383.18 117.33 373.93 117.75 364.95 118.89 356.26 120.3 347.57 122.39 339.16 125.12 331.06 128.06 322.96 131.57 315.17 135.6 307.7 139.73 300.23 144.31 293.1 149.26 286.31 154.21 279.5 159.46 273.04 164.96 266.92 170.35 260.76 175.94 254.92 181.7 249.4 187.27 243.81 192.97 238.48 198.8 233.42 204.41 228.21 210.15 223.2 216 218.38 221.65 213.34 227.45 208.41 233.41 203.59 239.19 198.48 245.17 193.42 251.35 188.4 257.41 183.06 263.71 177.75 270.25 172.47 276.71 166.89 283.44 161.38 290.45 155.98 297.41 150.38 304.66 144.97 312.2 139.83 319.71 134.65 327.52 129.87 335.61 125.57 343.68 121.44 352.05 117.94 360.69 115.16 369.33 112.75 378.25 111.17 387.46 110.5" stroke-dasharray="2 9" transform="rotate(22.58064516129032, 400, 400)" opacity="0.59"></path><path d="M391.94 121.09C400.88 120.9 409.92 121.6 419.04 123.16 428.18 125.14 437.43 127.91 446.76 131.39 456.14 135.16 465.62 139.53 475.2 144.43 484.83 149.43 494.56 154.84 504.36 160.57 514.21 166.24 524.12 172.14 534.03 178.19 543.96 184.07 553.84 190.04 563.61 196.09 573.29 201.87 582.75 207.71 591.9 213.59 600.81 219.19 609.26 224.85 617.13 230.58 624.58 236.06 631.29 241.64 637.15 247.34 642.42 252.85 646.7 258.52 649.93 264.38 652.5 270.1 653.97 276.05 654.35 282.23 654.16 288.33 652.98 294.7 650.92 301.35 648.59 307.94 645.65 314.84 642.24 322.04 639.07 329.21 635.82 336.69 632.67 344.49 630.3 352.27 628.38 360.37 627.08 368.78 626.94 377.18 627.58 385.9 629.04 394.95 631.71 403.99 635 413.15 638.74 422.41 643.25 431.67 647.83 441.05 652.26 450.51 656.86 459.99 660.88 469.56 664.17 479.2 667.06 488.87 668.91 498.61 669.63 508.37 669.63 518.15 668.38 527.93 665.89 537.67 662.61 547.38 658.15 556.98 652.62 566.42 646.41 575.73 639.3 584.79 631.42 593.5 623.09 601.95 614.19 609.95 604.86 617.36 595.33 624.39 585.54 630.72 575.59 636.26 565.63 641.28 555.62 645.41 545.64 648.59 535.75 651.21 525.93 652.86 516.23 653.52 506.65 653.71 497.18 653.01 487.84 651.48 478.61 649.73 469.48 647.36 460.43 644.51 451.48 641.83 442.58 638.95 433.73 636.03 424.93 633.72 416.16 631.66 407.41 629.99 398.68 629.26 389.96 629.1 381.25 629.55 372.55 631.06 364.06 633.09 355.8 635.55 347.53 638.79 339.5 642.18 331.71 645.57 323.92 649.29 316.39 652.68 309.13 655.59 301.87 658.37 294.88 660.4 288.2 661.58 281.5 662.3 275.09 662.01 268.99 660.69 262.86 658.76 257.01 655.77 251.45 651.79 245.82 647.19 240.46 641.68 235.34 635.34 230.11 628.51 225.1 620.99 220.29 612.9 215.31 604.48 210.5 595.63 205.84 586.44 200.98 577.09 196.24 567.52 191.64 557.81 186.81 548.05 182.1 538.23 177.53 528.4 172.76 518.6 168.15 508.81 163.73 499.09 159.17 489.42 154.86 479.82 150.85 470.3 146.8 460.82 143.11 451.43 139.86 442.12 136.68 432.84 134 423.63 131.89 414.52 129.97 405.41 128.68 396.38 128.08 387.44 127.75 378.5 128.14 369.85 129.22 361.5 130.57 353.15 132.58 345.09 135.22 337.34 138.07 329.59 141.48 322.14 145.41 315.01 149.44 307.87 153.91 301.05 158.77 294.55 163.62 288.02 168.79 281.81 174.22 275.9 179.55 269.95 185.09 264.28 190.79 258.89 196.33 253.4 202.02 248.15 207.82 243.13 213.42 237.94 219.14 232.93 224.98 228.07 230.62 222.98 236.39 218 242.31 213.1 248.04 207.92 253.96 202.79 260.05 197.7 266 192.32 272.17 186.97 278.56 181.66 284.86 176.1 291.4 170.62 298.2 165.27 304.93 159.76 311.94 154.45 319.22 149.43 326.46 144.39 333.99 139.76 341.8 135.6 349.58 131.62 357.65 128.26 366.01 125.59 374.35 123.27 382.99 121.74 391.93 121.09" stroke-dasharray="11 2" transform="rotate(25.806451612903224, 400, 400)" opacity="0.37"></path><path d="M396.82 131.68C405.49 131.48 414.26 132.14 423.12 133.61 432 135.47 440.98 138.09 450.05 141.4 459.15 145 468.35 149.18 477.62 153.87 486.93 158.7 496.31 163.93 505.72 169.48 515.16 175.02 524.61 180.79 534.01 186.75 543.38 192.56 552.65 198.49 561.75 204.5 570.72 210.3 579.42 216.16 587.74 222.06 595.81 227.72 603.39 233.44 610.36 239.21 616.92 244.76 622.75 250.39 627.76 256.13 632.22 261.67 635.76 267.36 638.33 273.2 640.32 278.89 641.34 284.79 641.37 290.89 640.96 296.89 639.69 303.14 637.65 309.63 635.45 316.06 632.73 322.77 629.63 329.75 626.81 336.7 623.94 343.94 621.2 351.48 619.18 358.99 617.58 366.81 616.52 374.93 616.51 383.04 617.2 391.47 618.61 400.2 621.1 408.94 624.13 417.79 627.56 426.73 631.71 435.68 635.91 444.74 640 453.86 644.27 463.01 648.07 472.23 651.21 481.49 654.07 490.77 656 500.09 656.94 509.4 657.27 518.71 656.48 527.97 654.57 537.15 651.95 546.27 648.23 555.25 643.51 564 638.15 572.62 631.91 580.93 624.9 588.85 617.44 596.52 609.37 603.7 600.83 610.3 592.05 616.52 582.93 622.06 573.59 626.84 564.18 631.15 554.66 634.63 545.1 637.22 535.58 639.33 526.07 640.56 516.63 640.91 507.28 640.88 498 640.07 488.83 638.53 479.74 636.85 470.75 634.64 461.85 632.02 453.03 629.6 444.27 627.02 435.6 624.43 426.97 622.41 418.39 620.62 409.87 619.17 401.36 618.59 392.9 618.51 384.49 618.96 376.08 620.36 367.91 622.23 359.99 624.46 352.07 627.42 344.39 630.51 336.97 633.6 329.53 637.03 322.36 640.18 315.46 642.9 308.55 645.57 301.91 647.58 295.54 648.83 289.16 649.73 283.05 649.72 277.21 648.78 271.33 647.32 265.71 644.9 260.35 641.55 254.9 637.66 249.69 632.89 244.7 627.33 239.58 621.31 234.65 614.6 229.9 607.3 224.98 599.67 220.2 591.58 215.57 583.11 210.73 574.45 206.01 565.52 201.41 556.41 196.6 547.21 191.91 537.9 187.35 528.53 182.62 519.16 178.04 509.77 173.66 500.41 169.16 491.08 164.9 481.78 160.94 472.56 156.95 463.37 153.33 454.25 150.12 445.22 147 436.21 144.37 427.28 142.29 418.45 140.41 409.63 139.13 400.89 138.52 392.26 138.17 383.63 138.52 375.29 139.54 367.27 140.83 359.23 142.76 351.49 145.3 344.06 148.05 336.62 151.35 329.47 155.15 322.63 159.07 315.77 163.43 309.21 168.16 302.95 172.92 296.66 177.98 290.64 183.31 284.91 188.57 279.11 194.04 273.56 199.68 268.26 205.18 262.85 210.83 257.64 216.6 252.62 222.19 247.43 227.9 242.39 233.72 237.48 239.35 232.35 245.1 227.3 250.98 222.33 256.7 217.1 262.56 211.91 268.58 206.76 274.47 201.35 280.54 195.98 286.81 190.68 292.98 185.16 299.38 179.73 306 174.45 312.56 169.05 319.36 163.86 326.42 158.97 333.44 154.09 340.72 149.61 348.27 145.61 355.8 141.79 363.61 138.56 371.7 136 379.77 133.78 388.14 132.32 396.81 131.69" stroke-dasharray="1 10" transform="rotate(29.03225806451613, 400, 400)" opacity="0.65"></path><path d="M401.86 142.28C410.25 142.07 418.74 142.67 427.31 144.05 435.9 145.81 444.59 148.28 453.34 151.41 462.12 154.82 470.97 158.81 479.87 163.29 488.79 167.92 497.75 172.95 506.7 178.32 515.64 183.69 524.55 189.32 533.37 195.14 542.12 200.86 550.72 206.72 559.1 212.67 567.32 218.44 575.23 224.29 582.73 230.2 589.96 235.89 596.67 241.64 602.78 247.45 608.5 253.05 613.51 258.73 617.73 264.49 621.47 270.07 624.35 275.78 626.35 281.61 627.86 287.3 628.5 293.16 628.28 299.2 627.71 305.14 626.4 311.29 624.44 317.66 622.4 323.96 619.93 330.51 617.15 337.31 614.68 344.06 612.18 351.09 609.81 358.39 608.13 365.66 606.82 373.22 605.98 381.06 606.1 388.9 606.83 397.02 608.17 405.45 610.49 413.87 613.28 422.39 616.41 431 620.21 439.61 624.06 448.31 627.8 457.06 631.76 465.83 635.31 474.65 638.29 483.48 641.07 492.32 643.05 501.16 644.14 509.96 644.74 518.74 644.33 527.44 642.92 536.01 640.89 544.49 637.85 552.8 633.87 560.84 629.31 568.73 623.89 576.29 617.73 583.43 611.12 590.32 603.89 596.72 596.16 602.53 588.15 607.99 579.76 612.79 571.1 616.87 562.32 620.54 553.37 623.43 544.32 625.51 535.26 627.19 526.16 628.08 517.08 628.18 508.05 627.99 499.05 627.11 490.14 625.61 481.29 624.02 472.51 621.99 463.82 619.62 455.19 617.46 446.64 615.18 438.17 612.9 429.74 611.15 421.38 609.62 413.1 608.38 404.84 607.94 396.63 607.92 388.51 608.36 380.39 609.67 372.52 611.38 364.91 613.4 357.3 616.09 349.94 618.89 342.84 621.69 335.72 624.83 328.87 627.73 322.28 630.27 315.67 632.8 309.32 634.75 303.23 636.04 294.17 637.16 277.23 634.64 269.3 630.9 264 627.64 258.9 623.56 254 618.73 248.96 613.47 244.09 607.54 239.38 601.02 234.5 594.19 229.75 586.86 225.13 579.13 220.31 571.2 215.6 562.95 211.01 554.48 206.22 545.9 201.55 537.16 197.02 528.33 192.33 519.46 187.8 510.53 183.47 501.6 179.03 492.67 174.84 483.76 170.95 474.89 167.04 466.04 163.49 457.25 160.34 448.54 157.3 439.84 154.72 431.22 152.68 422.69 150.83 414.17 149.57 405.74 148.95 397.42 148.59 389.1 148.91 381.07 149.87 373.35 151.09 365.61 152.93 358.17 155.36 351.02 158 343.86 161.18 336.98 164.84 330.39 168.64 323.77 172.86 317.43 177.45 311.37 182.09 305.25 187.03 299.39 192.25 293.79 197.41 288.11 202.79 282.64 208.36 277.39 213.8 272.03 219.4 266.83 225.12 261.8 230.69 256.61 236.37 251.53 242.16 246.56 247.78 241.39 253.52 236.28 259.37 231.25 265.06 225.97 270.89 220.74 276.85 215.57 282.69 210.15 288.69 204.8 294.87 199.52 300.94 194.06 307.22 188.71 313.7 183.53 320.11 178.25 326.75 173.21 333.62 168.47 340.44 163.76 347.51 159.44 354.84 155.6 362.13 151.94 369.7 148.85 377.53 146.41 385.35 144.29 393.46 142.89 401.85 142.28" stroke-dasharray="8 4" transform="rotate(32.25806451612903, 400, 400)" opacity="0.85"></path><path d="M406.8 152.87C414.91 152.66 423.1 153.21 431.35 154.5 439.62 156.14 447.96 158.46 456.36 161.42 464.76 164.64 473.21 168.42 481.68 172.69 490.15 177.1 498.62 181.92 507.05 187.09 515.44 192.28 523.76 197.73 531.94 203.4 540.03 208.99 547.92 214.74 555.55 220.6 563.01 226.32 570.12 232.13 576.8 238 583.21 243.7 589.11 249.46 594.4 255.27 599.33 260.91 603.59 266.61 607.1 272.39 610.2 278.01 612.52 283.72 614.04 289.55 615.16 295.25 615.51 301.08 615.11 307.07 614.45 312.96 613.16 319.03 611.32 325.3 609.46 331.49 607.25 337.9 604.8 344.53 602.67 351.12 600.53 357.95 598.52 365.03 597.14 372.08 596.1 379.39 595.47 386.96 595.7 394.52 596.45 402.35 597.73 410.45 599.89 418.55 602.45 426.73 605.3 434.97 608.75 443.22 612.26 451.53 615.67 459.88 619.32 468.22 622.6 476.6 625.41 484.96 628.08 493.31 630.05 501.63 631.25 509.87 632.05 518.08 631.96 526.17 630.97 534.09 629.45 541.92 627.01 549.53 623.71 556.85 619.88 564.01 615.24 570.82 609.88 577.2 604.1 583.34 597.7 588.98 590.77 594.05 583.56 598.81 575.93 602.93 567.99 606.38 559.89 609.47 551.57 611.86 543.11 613.51 534.59 614.82 525.98 615.44 517.35 615.36 508.72 615.06 500.1 614.16 491.53 612.73 482.99 611.27 474.5 609.43 466.09 607.3 457.72 605.41 449.42 603.42 441.2 601.43 433.02 599.95 424.91 598.65 416.89 597.61 408.88 597.29 400.95 597.33 393.11 597.77 385.26 598.99 377.68 600.54 370.37 602.36 363.04 604.79 355.97 607.32 349.17 609.84 342.34 612.7 335.76 615.35 329.44 617.68 323.09 620.05 316.98 621.92 311.13 623.22 302.39 624.49 285.96 622.87 278.22 619.84 273.02 617.16 268.01 613.71 263.17 609.55 258.2 605.01 253.37 599.82 248.69 594.06 243.83 587.98 239.1 581.42 234.48 574.43 229.69 567.23 224.99 559.7 220.41 551.9 215.66 543.98 211.02 535.86 206.53 527.6 201.89 519.29 197.42 510.89 193.15 502.44 188.79 493.98 184.69 485.5 180.87 477.05 177.05 468.6 173.59 460.18 170.52 451.83 167.55 443.48 165.05 435.2 163.05 427 161.25 418.81 160.01 410.71 159.39 402.7 159.02 394.69 159.29 386.97 160.19 379.53 161.34 372.09 163.09 364.92 165.4 358.03 167.92 351.12 170.96 344.47 174.48 338.1 178.13 331.69 182.2 325.54 186.65 319.63 191.14 313.67 195.95 307.93 201.03 302.42 206.08 296.83 211.35 291.43 216.81 286.21 222.18 280.87 227.7 275.67 233.36 270.62 238.88 265.41 244.53 260.3 250.27 255.28 255.87 250.07 261.58 244.92 267.4 239.84 273.07 234.55 278.87 229.3 284.79 224.11 290.58 218.73 296.53 213.41 302.62 208.19 308.62 202.81 314.79 197.57 321.15 192.5 327.44 187.37 333.93 182.49 340.63 177.91 347.28 173.38 354.16 169.25 361.28 165.57 368.36 162.08 375.7 159.14 383.28 156.82 390.85 154.8 398.69 153.46 406.79 152.87" stroke-dasharray="7 4" transform="rotate(35.483870967741936, 400, 400)" opacity="0.86"></path><path d="M411.41 163.46C419.21 163.25 427.07 163.75 434.98 164.95 442.9 166.47 450.86 168.65 458.85 171.42 466.84 174.46 474.85 178.02 482.84 182.06 490.81 186.26 498.75 190.85 506.6 195.79 514.4 200.78 522.09 206.04 529.59 211.52 537 216.95 544.17 222.56 551.04 228.3 557.74 233.93 564.07 239.67 569.95 245.48 575.59 251.14 580.71 256.87 585.25 262.67 589.47 268.3 593.05 274.01 595.95 279.78 598.5 285.41 600.34 291.13 601.46 296.94 602.28 302.63 602.42 308.44 601.91 314.38 601.21 320.23 599.99 326.23 598.3 332.4 596.65 338.49 594.72 344.78 592.59 351.26 590.78 357.69 588.99 364.34 587.31 371.2 586.22 378.04 585.42 385.1 584.98 392.4 585.31 399.69 586.08 407.22 587.3 414.98 589.3 422.75 591.64 430.57 594.22 438.43 597.35 446.29 600.52 454.19 603.62 462.09 606.95 469.99 609.97 477.88 612.59 485.73 615.12 493.56 617.05 501.33 618.31 508.99 619.25 516.59 619.41 524.05 618.77 531.31 617.69 538.47 615.77 545.38 613.07 551.99 609.9 558.43 605.98 564.51 601.37 570.16 596.37 575.58 590.76 580.51 584.63 584.9 578.21 589.01 571.36 592.54 564.15 595.43 556.78 598.02 549.14 599.97 541.31 601.26 533.39 602.28 525.35 602.68 517.23 602.48 509.09 602.12 500.92 601.25 492.76 599.92 484.61 598.6 476.48 596.96 468.4 595.08 460.36 593.45 452.36 591.74 444.44 590.03 436.55 588.8 428.72 587.72 420.98 586.86 413.26 586.65 405.61 586.75 398.05 587.18 390.49 588.31 383.19 589.71 376.15 591.34 369.1 593.53 362.3 595.79 355.75 598.05 349.17 600.63 342.84 603.03 336.75 605.16 327.68 608.24 310.59 611.75 302.54 611.85 294.57 610.85 279.4 604.81 272.13 599.82 267.21 595.94 262.41 591.45 257.75 586.39 252.92 581.05 248.21 575.22 243.6 568.96 238.83 562.5 234.16 555.68 229.61 548.57 224.9 541.33 220.31 533.86 215.86 526.22 211.3 518.51 206.9 510.67 202.7 502.75 198.45 494.81 194.43 486.82 190.71 478.82 187 470.82 183.63 462.82 180.65 454.86 177.78 446.91 175.35 438.99 173.41 431.15 171.66 423.31 170.45 415.54 169.83 407.86 169.45 400.17 169.68 392.75 170.51 385.6 171.59 378.43 173.24 371.52 175.43 364.87 177.82 358.19 180.72 351.77 184.07 345.58 187.57 339.36 191.48 333.36 195.75 327.58 200.08 321.75 204.73 316.12 209.65 310.68 214.57 305.15 219.71 299.8 225.04 294.59 230.31 289.27 235.74 284.08 241.3 279.01 246.76 273.78 252.34 268.65 258.03 263.59 263.59 258.37 269.26 253.2 275.02 248.09 280.66 242.8 286.42 237.57 292.29 232.4 298.04 227.07 303.92 221.82 309.94 216.68 315.87 211.42 321.95 206.3 328.2 201.38 334.37 196.42 340.73 191.71 347.28 187.31 353.77 182.98 360.48 179.03 367.39 175.53 374.27 172.21 381.38 169.42 388.71 167.22 396.03 165.3 403.59 164.03 411.4 163.46" stroke-dasharray="2 8" transform="rotate(38.70967741935484, 400, 400)" opacity="0.39"></path><path d="M415.44 174.06C422.92 173.84 430.43 174.29 437.97 175.4 445.5 176.81 453.06 178.84 460.6 181.43 468.15 184.27 475.67 187.62 483.13 191.42 490.58 195.39 497.94 199.74 505.19 204.44 512.38 209.2 519.41 214.24 526.23 219.52 532.94 224.77 539.39 230.21 545.52 235.79 551.48 241.29 557.07 246.91 562.2 252.62 567.12 258.22 571.53 263.89 575.39 269.63 578.97 275.24 581.97 280.91 584.33 286.65 587.14 295.12 589.27 312.3 588.71 321.07 588.04 326.86 586.92 332.79 585.41 338.85 583.99 344.85 582.33 351.01 580.52 357.34 579.03 363.62 577.56 370.08 576.19 376.73 575.37 383.36 574.79 390.18 574.51 397.2 574.92 404.21 575.7 411.43 576.86 418.85 578.71 426.26 580.84 433.71 583.17 441.17 585.99 448.62 588.85 456.08 591.64 463.52 594.66 470.94 597.42 478.33 599.82 485.64 602.19 492.93 604.05 500.12 605.32 507.17 606.35 514.17 606.7 520.99 606.34 527.58 605.62 534.08 604.16 540.31 601.98 546.21 599.41 551.97 596.14 557.35 592.21 562.31 587.94 567.07 583.09 571.35 577.71 575.13 572.06 578.66 565.97 581.64 559.51 584.05 552.87 586.22 545.94 587.8 538.77 588.8 531.51 589.6 524.08 589.85 516.53 589.58 508.94 589.2 501.28 588.39 493.59 587.18 485.89 586.02 478.19 584.6 470.51 582.97 462.84 581.59 455.2 580.14 447.63 578.7 440.06 577.7 432.56 576.82 425.13 576.13 417.71 576.02 410.35 576.17 403.09 576.59 395.82 577.63 388.8 578.9 382.02 580.35 375.24 582.3 368.69 584.32 362.38 586.32 356.04 588.63 349.93 590.78 344.04 592.7 335.26 595.53 318.65 598.95 310.78 599.25 302.98 598.6 288.02 593.76 280.82 589.57 275.93 586.29 271.17 582.42 266.52 578.03 261.73 573.38 257.04 568.25 252.45 562.7 247.72 556.95 243.09 550.84 238.57 544.42 233.92 537.86 229.4 531.05 225.02 524.05 220.54 516.96 216.24 509.72 212.14 502.37 207.99 494.98 204.09 487.51 200.47 480 196.88 472.48 193.62 464.94 190.74 457.41 187.97 449.88 185.62 442.36 183.75 434.9 182.06 427.43 180.88 420.02 180.26 412.67 179.88 405.31 180.08 398.2 180.84 391.32 181.84 384.43 183.38 377.78 185.44 371.35 187.7 364.9 190.45 358.67 193.63 352.66 196.96 346.61 200.69 340.75 204.77 335.09 208.93 329.38 213.4 323.83 218.14 318.45 222.9 312.99 227.88 307.67 233.06 302.49 238.2 297.19 243.51 292 248.95 286.92 254.32 281.69 259.81 276.55 265.41 271.48 270.91 266.26 276.51 261.1 282.21 256 287.8 250.75 293.5 245.55 299.3 240.44 305 235.19 310.81 230.04 316.75 225.01 322.6 219.89 328.59 214.93 334.72 210.17 340.79 205.4 347.01 200.88 353.4 196.67 359.75 192.55 366.27 188.79 372.98 185.48 379.66 182.34 386.53 179.7 393.61 177.62 400.67 175.8 407.95 174.6 415.43 174.06" stroke-dasharray="4 7" transform="rotate(41.935483870967744, 400, 400)" opacity="0.70"></path><path d="M418.69 184.65C425.83 184.43 432.98 184.84 440.11 185.86 447.24 187.16 454.36 189.03 461.43 191.44 468.5 194.08 475.51 197.21 482.43 200.78 489.32 204.5 496.1 208.61 502.72 213.05 509.29 217.57 515.66 222.37 521.8 227.41 527.84 232.45 533.59 237.69 539.01 243.08 544.27 248.42 549.15 253.89 553.61 259.46 557.86 264.94 561.63 270.52 564.89 276.16 567.92 281.7 570.41 287.31 572.34 292.98 574.61 301.37 576.16 318.39 575.57 327.05 574.96 332.77 573.98 338.61 572.67 344.56 571.48 350.46 570.1 356.48 568.6 362.64 567.41 368.77 566.24 375.05 565.16 381.47 564.57 387.88 564.19 394.46 564.06 401.19 564.54 407.92 565.33 414.81 566.42 421.87 568.13 428.93 570.06 435.99 572.15 443.02 574.69 450.05 577.24 457.06 579.73 464.01 582.45 470.95 584.94 477.81 587.13 484.58 589.33 491.31 591.08 497.92 592.33 504.37 593.4 510.75 593.88 516.94 593.74 522.88 592.77 531.51 587.09 547.01 582.44 553.7 576.76 559.7 562.43 569.07 554.02 572.33 548.11 574.14 541.89 575.43 535.41 576.21 528.82 576.84 522.03 576.99 515.09 576.69 508.09 576.34 500.99 575.61 493.81 574.55 486.62 573.56 479.39 572.35 472.16 570.97 464.92 569.83 457.69 568.63 450.49 567.44 443.31 566.65 436.15 565.96 429.06 565.42 421.97 565.4 414.93 565.58 407.97 565.99 401 566.95 394.27 568.09 387.75 569.38 381.23 571.11 374.93 572.89 368.84 574.65 362.73 576.7 356.82 578.61 351.12 580.32 342.6 582.89 326.42 586.13 318.71 586.55 311.04 586.19 296.28 582.35 289.14 578.85 284.3 576.09 279.58 572.8 274.95 569.01 270.21 565 265.56 560.52 261.01 555.64 256.33 550.57 251.76 545.14 247.3 539.39 242.73 533.51 238.29 527.37 234 521 229.63 514.55 225.43 507.92 221.44 501.15 217.43 494.34 213.65 487.41 210.16 480.42 206.7 473.41 203.57 466.36 200.8 459.28 198.13 452.2 195.88 445.11 194.08 438.03 192.45 430.97 191.31 423.92 190.7 416.91 190.31 409.9 190.47 403.09 191.17 396.5 192.09 389.89 193.52 383.48 195.45 377.28 197.57 371.05 200.15 365.02 203.15 359.17 206.3 353.28 209.84 347.56 213.72 342.01 217.68 336.41 221.96 330.95 226.5 325.64 231.07 320.24 235.87 314.97 240.87 309.81 245.85 304.55 251.01 299.38 256.3 294.3 261.54 289.11 266.92 283.98 272.4 278.92 277.8 273.74 283.31 268.61 288.91 263.56 294.43 258.37 300.04 253.26 305.75 248.23 311.38 243.1 317.11 238.07 322.95 233.19 328.71 228.23 334.59 223.45 340.6 218.88 346.55 214.31 352.63 210 358.85 206 365.04 202.09 371.38 198.54 377.87 195.41 384.34 192.45 390.98 189.97 397.78 188.01 404.57 186.3 411.54 185.17 418.68 184.65" stroke-dasharray="11 8" transform="rotate(45.16129032258064, 400, 400)" opacity="0.08"></path><path d="M421.01 195.24C427.79 195.02 434.54 195.39 441.25 196.32 447.96 197.5 454.61 199.23 461.2 201.46 467.77 203.9 474.25 206.81 480.61 210.13 486.94 213.61 493.13 217.46 499.14 221.63 505.08 225.89 510.82 230.43 516.29 235.21 521.68 240.02 526.77 245.02 531.52 250.19 536.14 255.34 540.38 260.62 544.22 266.01 547.88 271.34 551.09 276.77 553.84 282.28 557.43 290.46 561.9 307.04 562.8 315.44 563.07 323.79 561.59 340.79 560.09 349.47 559.14 355.24 558.03 361.11 556.82 367.1 555.91 373.05 555.02 379.13 554.21 385.32 553.84 391.5 553.63 397.81 553.64 404.24 554.17 410.67 554.95 417.23 555.99 423.92 557.56 430.61 559.3 437.26 561.16 443.86 563.42 450.46 565.69 457 567.9 463.45 570.33 469.89 572.56 476.23 574.53 482.45 576.53 488.63 578.15 494.66 579.35 500.5 580.7 509.08 580.41 524.89 578.67 531.98 575.95 538.56 567.33 549.58 561.56 553.93 555.01 557.58 539.69 562.37 531.13 563.52 525.22 564.03 519.08 564.14 512.76 563.85 506.39 563.55 499.87 562.93 493.25 562.02 486.6 561.22 479.89 560.22 473.13 559.07 466.37 558.16 459.58 557.21 452.8 556.24 446.02 555.65 439.26 555.13 432.52 554.73 425.8 554.78 419.1 555.01 412.45 555.4 405.81 556.28 399.36 557.3 393.11 558.43 386.86 559.96 380.8 561.51 374.93 563.05 366.19 565.69 349.54 570.31 341.61 572.01 333.76 573.31 318.67 573.62 311.4 572.5 304.11 570.6 289.94 564.01 283.02 559.36 278.33 555.93 273.74 552.05 269.25 547.79 264.65 543.36 260.15 538.57 255.78 533.47 251.31 528.24 246.98 522.74 242.79 517 238.55 511.18 234.49 505.16 230.63 498.98 226.76 492.75 223.13 486.39 219.77 479.94 216.46 473.45 213.46 466.9 210.81 460.29 208.27 453.68 206.12 447.03 204.4 440.37 202.83 433.71 201.74 427.05 201.14 420.4 200.74 413.74 200.87 407.26 201.5 400.95 202.34 394.63 203.66 388.48 205.46 382.5 207.43 376.5 209.84 370.66 212.65 364.97 215.61 359.26 218.94 353.68 222.6 348.25 226.36 342.76 230.41 337.4 234.73 332.16 239.09 326.85 243.69 321.63 248.49 316.52 253.28 311.32 258.25 306.2 263.37 301.15 268.45 296.01 273.67 290.93 279 285.92 284.28 280.81 289.66 275.75 295.13 270.77 300.54 265.69 306.04 260.69 311.63 255.79 317.15 250.81 322.77 245.94 328.48 241.22 334.14 236.46 339.89 231.88 345.75 227.52 351.56 223.17 357.49 219.09 363.53 215.3 369.53 211.61 375.67 208.27 381.93 205.33 388.17 202.56 394.56 200.24 401.07 198.41 407.57 196.8 414.22 195.74 421 195.24" stroke-dasharray="2 10" transform="rotate(48.38709677419355, 400, 400)" opacity="0.25"></path><path d="M422.27 205.83C428.67 205.61 435.01 205.94 441.28 206.78 447.55 207.86 453.73 209.44 459.81 211.49 471.94 216.17 483.56 222.51 494.42 230.19 505.06 238.25 514.73 247.33 523.14 257.15 531.09 266.96 537.56 277.31 542.34 288.02 546.54 298.5 549.03 309.3 549.82 320.32 550.34 331.1 549.54 342.19 547.7 353.53 546.43 364.72 544.86 376.29 543.35 388.18 543.16 394.11 543.12 400.14 543.23 406.27 543.81 412.38 544.58 418.6 545.55 424.9 546.99 431.2 548.55 437.44 550.2 443.6 552.21 449.76 554.21 455.83 556.15 461.79 560.6 473.66 564.15 485.01 566.41 495.6 568.37 505.97 568.45 515.4 566.55 523.62 563.8 531.42 559.01 537.83 552.39 542.65 545 546.97 536.05 549.69 525.89 550.79 515.29 551.64 503.81 551.19 491.76 549.63 479.57 548.52 467.01 546.92 454.34 545.12 448 544.7 441.65 544.33 435.3 544.06 428.96 544.18 422.62 544.43 416.31 544.81 410 545.61 403.86 546.52 397.89 547.5 391.91 548.84 386.1 550.19 380.45 551.51 369.1 554.85 358.35 557.56 348.2 559.32 337.86 561.13 328 561.43 318.62 560.1 308.93 558.23 299.6 554.54 290.68 549.15 281.4 543.13 272.47 535.55 264.01 526.66 255.28 517.34 247.1 506.95 239.7 495.81 232.31 484.47 225.92 472.56 220.79 460.32 218.38 454.19 216.34 448 214.7 441.76 213.21 435.53 212.16 429.26 211.57 422.98 211.18 416.69 211.27 410.54 211.84 404.52 212.59 398.5 213.81 392.62 215.46 386.87 219.27 375.33 224.68 364.27 231.44 353.7 238.58 342.96 246.83 332.58 255.92 322.58 265.08 312.28 274.92 302.23 285.23 292.48 295.4 282.38 306 272.55 316.91 263.13 327.63 253.49 338.71 244.39 350.11 236.1 361.37 227.94 373.03 220.88 385.06 215.25 391.06 212.67 397.16 210.5 403.36 208.8 409.56 207.3 415.86 206.3 422.26 205.84" stroke-dasharray="2 1" transform="rotate(51.61290322580645, 400, 400)" opacity="0.18"></path><path d="M422.42 216.43C434.42 216.21 446.08 217.98 457.25 221.53 468.37 225.8 478.9 231.64 488.61 238.75 498.12 246.24 506.65 254.75 513.96 263.99 520.89 273.29 526.45 283.16 530.49 293.41 534.1 303.51 536.23 313.94 536.9 324.59 537.45 335.06 536.91 345.81 535.5 356.75 534.68 367.57 533.6 378.69 532.56 390.04 532.89 401.35 533.72 412.96 535.11 424.77 538.11 436.59 541.33 448.04 544.47 458.99 548.39 469.89 551.51 480.18 553.53 489.67 555.4 498.98 555.65 507.33 554.19 514.51 552.08 521.36 548.15 526.92 542.56 531.03 536.31 534.79 528.59 537.13 519.68 538.07 510.37 538.89 500.12 538.6 489.23 537.38 478.18 536.63 466.67 535.44 454.94 534.06 443.18 533.83 431.27 533.86 419.35 534.21 407.43 536.04 396.05 538.04 385.24 540.03 374.37 542.91 363.99 545.22 354.12 546.71 344.1 548.34 334.47 548.66 325.27 547.57 315.81 546.1 306.68 543.03 297.93 538.43 288.89 533.33 280.2 526.78 271.99 518.99 263.59 510.83 255.74 501.61 248.67 491.58 241.65 481.38 235.59 470.54 230.74 459.28 226.31 447.97 223.32 436.34 222.01 424.53 221.4 412.72 222.61 401.29 225.47 390.3 228.96 379.26 233.96 368.59 240.24 358.32 246.9 347.91 254.64 337.79 263.21 327.98 271.9 317.94 281.26 308.13 291.11 298.61 300.89 288.82 311.1 279.33 321.61 270.27 331.99 261.07 342.7 252.44 353.67 244.62 364.54 236.98 375.74 230.39 387.21 225.17 398.64 220.53 410.41 217.53 422.41 216.43" stroke-dasharray="7 6" transform="rotate(54.83870967741935, 400, 400)" opacity="0.08"></path><path d="M421.44 227.02C432.61 226.79 443.36 228.37 453.55 231.58 463.68 235.46 473.16 240.78 481.8 247.31 490.27 254.22 497.76 262.11 504.11 270.74 510.16 279.47 514.96 288.79 518.41 298.49 521.57 308.13 523.45 318.11 524.1 328.29 524.75 338.36 524.49 348.68 523.5 359.14 523.11 369.53 522.48 380.14 521.85 390.89 522.42 401.61 523.35 412.53 524.68 423.54 527.38 434.55 530.19 445.11 532.88 455.1 536.28 465.05 538.98 474.34 540.74 482.81 542.46 491.12 542.8 498.5 541.66 504.78 540.04 510.79 536.83 515.63 532.13 519.18 526.89 522.48 520.29 524.55 512.53 525.41 504.42 526.27 495.36 526.17 485.61 525.28 475.69 524.87 465.25 524.07 454.47 523.07 443.66 523.08 432.59 523.25 421.42 523.62 410.24 525.26 399.47 526.97 389.16 528.61 378.8 531.06 368.83 532.99 359.29 534.21 349.62 535.61 340.28 535.9 331.31 534.97 322.13 533.8 313.26 531.22 304.74 527.29 296.01 522.98 287.63 517.34 279.73 510.54 271.71 503.43 264.24 495.29 257.53 486.33 250.91 477.21 245.21 467.41 240.67 457.11 236.51 446.77 233.7 436.02 232.45 424.99 231.83 413.96 232.89 403.18 235.48 392.72 238.65 382.23 243.24 372 249.02 362.09 255.18 352.06 262.37 342.26 270.38 332.74 278.54 323.03 287.37 313.53 296.69 304.33 305.99 294.95 315.73 285.86 325.75 277.23 335.71 268.54 345.96 260.42 356.43 253.11 366.84 246 377.51 239.9 388.36 235.08 399.2 230.81 410.26 228.04 421.44 227.02" stroke-dasharray="6 9" transform="rotate(58.06451612903226, 400, 400)" opacity="0.98"></path><path d="M419.38 237.61C429.71 237.37 439.54 238.77 448.77 241.66 457.95 245.14 466.44 249.96 474.1 255.9 481.61 262.21 488.2 269.46 493.72 277.43 499.02 285.55 503.2 294.24 506.21 303.34 509.04 312.43 510.77 321.86 511.47 331.5 512.26 341.07 512.29 350.87 511.72 360.79 511.71 370.65 511.49 380.68 511.22 390.78 511.98 400.87 512.98 411.07 514.24 421.25 516.66 431.44 519.09 441.12 521.36 450.2 524.27 459.22 526.57 467.57 528.05 475.11 529.75 485.78 526.46 501.94 521.19 507.17 516.82 510.12 511.2 512.01 504.5 512.87 497.49 513.79 489.55 513.91 480.88 513.35 472.07 513.25 462.67 512.8 452.85 512.14 443 512.36 432.81 512.64 422.41 513.03 412.01 514.49 401.89 515.94 392.12 517.26 382.31 519.3 372.81 520.87 363.64 521.81 354.38 522.97 345.39 523.18 336.72 522.34 327.9 521.37 319.35 519.18 311.14 515.8 302.79 512.14 294.78 507.29 287.25 501.37 279.66 495.2 272.61 488.05 266.3 480.09 260.11 471.99 254.8 463.19 250.56 453.84 246.7 444.44 244.07 434.57 242.88 424.34 242.27 414.1 243.19 404 245.51 394.12 248.36 384.22 252.51 374.49 257.79 365 263.43 355.43 270.05 346.03 277.45 336.87 285.03 327.59 293.27 318.5 301.99 309.7 310.75 300.79 319.93 292.18 329.4 284.05 338.83 275.91 348.55 268.35 358.45 261.57 368.31 255.01 378.38 249.41 388.56 245 398.74 241.09 409.05 238.56 419.38 237.61" stroke-dasharray="3 7" transform="rotate(61.29032258064516, 400, 400)" opacity="0.29"></path><path d="M416.35 248.21C425.82 247.95 434.76 249.18 443.07 251.75 451.33 254.84 458.91 259.16 465.68 264.52 472.34 270.22 478.14 276.81 482.97 284.1 487.64 291.54 491.34 299.57 494.02 307.99 496.61 316.46 498.28 325.26 499.09 334.28 500.04 343.27 500.36 352.47 500.17 361.76 500.5 371.03 500.62 380.42 500.66 389.82 501.58 399.22 502.62 408.66 503.8 418.02 505.95 427.38 508.04 436.2 509.92 444.4 512.38 452.55 514.28 460.03 515.48 466.72 516.94 476.19 514.26 490.47 509.84 495.11 506.2 497.8 501.43 499.58 495.66 500.48 489.65 501.5 482.74 501.84 475.1 501.59 467.33 501.78 458.94 501.64 450.08 501.27 441.18 501.66 431.88 502.05 422.28 502.44 412.68 503.73 403.25 504.93 394.07 505.98 384.87 507.64 375.87 508.87 367.15 509.54 358.36 510.46 349.79 510.55 341.5 509.75 333.11 508.89 324.96 507 317.14 504.06 309.23 500.94 301.66 496.75 294.56 491.6 287.45 486.26 280.87 480 274.99 472.96 269.26 465.8 264.35 457.94 260.44 449.5 256.87 441.02 254.44 432.02 253.32 422.6 252.71 413.18 253.49 403.79 255.55 394.53 258.08 385.27 261.81 376.1 266.57 367.11 271.68 358.06 277.7 349.14 284.47 340.44 291.43 331.65 299.02 323.05 307.09 314.75 315.23 306.38 323.78 298.33 332.61 290.75 341.45 283.21 350.54 276.24 359.79 270.01 369.03 264.02 378.43 258.92 387.89 254.92 397.35 251.37 406.88 249.07 416.35 248.21" stroke-dasharray="4 9" transform="rotate(64.51612903225806, 400, 400)" opacity="0.96"></path><path d="M412.5 258.8C421.1 258.53 429.16 259.6 436.6 261.86 444.01 264.58 450.74 268.41 456.73 273.19 462.63 278.28 467.75 284.2 472 290.78 476.17 297.53 479.48 304.83 481.93 312.54 484.37 320.31 486.03 328.42 486.97 336.74 488.09 345.06 488.68 353.58 488.84 362.19 489.46 370.78 489.88 379.47 490.18 388.13 491.2 396.8 492.27 405.46 493.37 413.99 495.26 422.52 497.03 430.5 498.56 437.85 500.59 445.19 502.13 451.86 503.05 457.79 503.07 472.56 493.11 486.45 486.14 488.3 481 489.43 475.03 489.98 468.34 490.02 461.54 490.45 454.12 490.58 446.19 490.47 438.22 491 429.8 491.46 421.03 491.84 412.26 492.98 403.55 493.97 395.02 494.76 386.47 496.08 378.05 496.99 369.84 497.41 361.6 498.07 353.52 498.03 345.69 497.23 337.8 496.43 330.13 494.74 322.77 492.16 315.37 489.46 308.31 485.83 301.69 481.34 295.1 476.71 289.03 471.25 283.62 465.04 278.36 458.74 273.87 451.76 270.3 444.19 267.03 436.59 264.8 428.45 263.76 419.85 263.15 411.25 263.81 402.61 265.61 394.03 267.83 385.44 271.13 376.89 275.38 368.47 279.95 360.03 285.36 351.67 291.47 343.51 297.77 335.3 304.68 327.28 312.04 319.53 319.5 311.78 327.36 304.34 335.49 297.37 343.65 290.47 352.05 284.11 360.58 278.46 369.13 273.04 377.8 268.44 386.49 264.85 395.19 261.66 403.9 259.59 412.5 258.8" stroke-dasharray="3 6" transform="rotate(67.74193548387096, 400, 400)" opacity="0.40"></path><path d="M408.02 269.39C415.76 269.12 422.98 270.03 429.6 272 436.19 274.36 442.17 277.71 447.46 281.91 452.69 286.4 457.23 291.65 461.02 297.5 464.76 303.53 467.78 310.09 470.08 317.03 472.4 324.06 474.09 331.42 475.18 338.98 476.45 346.58 477.29 354.35 477.74 362.2 478.6 370.06 479.25 377.99 479.76 385.88 480.85 393.78 481.92 401.63 482.93 409.34 484.59 417.04 486.06 424.2 487.29 430.78 489.53 440.3 491.65 456.02 491.03 462.09 485.78 470.91 469.11 477.96 460.72 478.63 454.82 479.27 448.3 479.62 441.26 479.73 434.2 480.36 426.66 480.87 418.72 481.25 410.79 482.24 402.85 483.03 395 483.6 387.15 484.61 379.38 485.24 371.76 485.43 364.12 485.85 356.62 485.67 349.33 484.83 342.01 484.04 334.89 482.5 328.07 480.19 321.25 477.83 314.74 474.66 308.67 470.73 302.64 466.72 297.11 461.95 292.19 456.49 287.43 450.97 283.36 444.81 280.14 438.07 277.19 431.3 275.16 424 274.19 416.22 273.6 408.44 274.14 400.57 275.69 392.7 277.61 384.84 280.49 376.98 284.23 369.2 288.25 361.42 293.05 353.71 298.48 346.16 304.11 338.61 310.3 331.23 316.93 324.12 323.66 317.04 330.77 310.27 338.13 303.94 345.55 297.7 353.2 291.98 360.96 286.92 368.74 282.07 376.63 277.98 384.51 274.79 392.41 271.94 400.28 270.1 408.02 269.39" stroke-dasharray="3 5" transform="rotate(70.96774193548387, 400, 400)" opacity="0.32"></path><path d="M403.14 279.99C410.03 279.72 416.42 280.48 422.28 282.17 428.12 284.18 433.4 287.07 438.07 290.72 442.72 294.61 446.76 299.19 450.17 304.32 453.56 309.62 456.35 315.41 458.54 321.56 460.79 327.8 462.51 334.37 463.73 341.13 465.14 347.94 466.17 354.92 466.87 361.97 467.91 369.04 468.75 376.17 469.4 383.25 470.53 390.34 471.57 397.38 472.49 404.26 473.93 411.14 475.14 417.52 476.08 423.35 477.82 431.81 479.23 445.77 478.55 451.2 473.94 459.34 459.65 466.47 452.4 467.43 447.31 468.24 441.63 468.77 435.45 469.05 429.24 469.75 422.56 470.3 415.48 470.66 408.39 471.51 401.25 472.13 394.14 472.5 387.03 473.24 379.96 473.63 372.99 473.61 366.03 473.8 359.17 473.48 352.49 472.6 345.81 471.79 339.32 470.35 333.11 468.26 326.91 466.16 321.01 463.37 315.52 459.91 310.1 456.41 305.13 452.25 300.72 447.47 296.47 442.66 292.84 437.24 289.97 431.28 287.33 425.31 285.52 418.82 284.63 411.86 284.06 404.91 284.48 397.83 285.8 390.72 287.42 383.62 289.9 376.49 293.14 369.43 296.63 362.36 300.81 355.36 305.57 348.51 310.5 341.67 315.96 334.99 321.82 328.58 327.78 322.21 334.11 316.15 340.67 310.5 347.3 304.95 354.14 299.87 361.08 295.41 368.06 291.13 375.12 287.53 382.17 284.74 389.23 282.24 396.26 280.62 403.14 279.99" stroke-dasharray="8 3" transform="rotate(74.19354838709677, 400, 400)" opacity="0.83"></path><path d="M398.1 290.58C410.2 290.35 420.53 293.6 428.81 299.61 437.03 306.43 443.26 315.58 447.41 326.19 451.84 337.15 454.73 349.24 456.24 361.65 458.85 374.16 460.82 386.86 462.06 398.99 464.88 411.12 466.53 421.46 466.76 429.72 467.56 437.95 466.15 444.16 462.44 448.26 458.58 452.62 452.19 455.3 443.58 456.43 434.79 458.54 423.94 459.77 411.45 460.06 398.97 461.88 386.15 462.54 373.65 461.96 361.19 462.11 349.06 460.31 337.93 456.46 326.93 452.66 317.1 446.5 309.23 438.18 301.9 429.77 296.91 419.26 295.07 406.98 294.26 394.7 296.83 381.9 302.13 369.29 308.24 356.71 316.73 344.37 326.79 332.99 337.25 321.81 348.96 311.84 361.12 303.94 373.42 296.7 386.01 291.97 398.1 290.58" stroke-dasharray="9 3" transform="rotate(77.41935483870968, 400, 400)" opacity="0.42"></path><path d="M393.16 301.17C403.62 300.9 412.6 303.58 419.87 308.6 427.13 314.28 432.78 321.99 436.76 331.01 441.02 340.35 444.02 350.72 445.82 361.43 448.49 372.23 450.47 383.24 451.62 393.77 453.96 404.3 455.13 413.3 455.02 420.56 454.69 430.64 444.53 442.83 434.43 445.63 426.96 447.81 417.66 449.13 406.86 449.47 396.05 450.96 384.85 451.29 373.89 450.48 362.98 450.27 352.35 448.41 342.61 444.86 333.04 441.42 324.52 436.02 317.74 428.8 311.42 421.53 307.12 412.44 305.5 401.78 304.71 391.12 306.79 379.97 311.21 368.95 316.27 358 323.41 347.26 331.94 337.42 340.81 327.78 350.82 319.23 361.27 312.52 371.85 306.36 382.7 302.35 393.16 301.17" stroke-dasharray="1 0" transform="rotate(80.64516129032258, 400, 400)" opacity="0.47"></path><path d="M388.56 311.76C397.42 311.47 405.11 313.61 411.44 317.7 417.79 322.3 422.88 328.62 426.65 336.09 430.67 343.81 433.67 352.47 435.63 361.47 438.24 370.56 440.15 379.86 441.18 388.82 443.08 397.78 443.85 405.51 443.49 411.83 442.79 420.68 433.76 432.07 425.2 435.02 418.91 437.19 411.07 438.52 401.91 438.88 392.76 440.07 383.23 440.15 373.87 439.19 364.57 438.7 355.51 436.82 347.24 433.57 339.13 430.44 331.95 425.72 326.25 419.52 320.94 413.31 317.32 405.57 315.94 396.51 315.19 387.44 316.82 377.95 320.39 368.6 324.47 359.3 330.29 350.22 337.33 341.94 344.64 333.85 352.96 326.73 361.71 321.17 370.56 316.06 379.69 312.74 388.56 311.76" stroke-dasharray="5 1" transform="rotate(83.87096774193549, 400, 400)" opacity="0.85"></path><path d="M384.53 322.36C391.85 322.06 398.29 323.71 403.7 326.94 409.14 330.52 413.64 335.52 417.12 341.49 420.8 347.66 423.67 354.63 425.65 361.95 428.08 369.34 429.84 376.96 430.75 384.38 432.46 395.03 431.19 411.3 427.79 416.84 423.22 421.66 407.64 427.3 396.88 428.29 389.34 429.2 381.48 429.1 373.77 428.07 366.12 427.39 358.67 425.56 351.9 422.64 345.27 419.83 339.41 415.77 334.79 410.54 330.47 405.32 327.52 398.88 326.38 391.39 325.68 383.89 326.91 376.08 329.7 368.4 332.85 360.77 337.44 353.36 343.04 346.65 348.85 340.09 355.52 334.35 362.6 329.91 369.76 325.8 377.22 323.14 384.53 322.36" stroke-dasharray="5 2" transform="rotate(87.09677419354838, 400, 400)" opacity="0.79"></path><path d="M381.28 332.95C392.89 332.71 402.17 338.32 408.21 347.28 414.8 356.78 419.18 368.82 420.31 380.63 422.89 392.42 421.61 401.65 416.93 407.4 412.52 413.66 403.91 417.41 391.99 417.69 380.07 419.4 367.33 417.33 356.67 412.14 346.44 407.33 338.91 398.56 336.82 386.65 335.9 374.74 340.79 362.09 349.15 351.6 358.07 341.59 369.67 334.45 381.28 332.95" stroke-dasharray="7 7" transform="rotate(90.32258064516128, 400, 400)" opacity="0.97"></path><path d="M378.97 343.54C387.62 343.23 394.89 347.14 399.9 353.52 405.25 360.22 408.91 368.93 409.87 377.74 411.64 386.55 410.33 393.75 406.53 398.51 402.92 403.59 396.35 406.76 387.51 407.1 378.67 408.23 369.35 406.34 361.64 402.13 354.2 398.16 348.76 391.38 347.25 382.51 346.43 373.63 349.78 364.41 355.71 356.89 361.96 349.66 370.31 344.57 378.97 343.54" stroke-dasharray="1 1" transform="rotate(93.54838709677419, 400, 400)" opacity="0.50"></path><path d="M377.71 354.14C389.22 353.88 398.36 364.12 399.44 375.84 401.9 387.55 395.34 396.24 383.66 396.51 371.97 398.16 359.9 390.92 357.69 379.15 356.72 367.37 366.2 355.69 377.71 354.14" stroke-dasharray="10 8" transform="rotate(96.7741935483871, 400, 400)" opacity="0.07"></path></g></svg>